<mxfile host="app.diagrams.net" agent="Mozilla/5.0 (Windows NT 10.0; Win64; x64) AppleWebKit/537.36 (KHTML, like Gecko) Chrome/127.0.0.0 Safari/537.36 OPR/113.0.0.0" version="24.8.3">
  <diagram name="Lab5" id="PWJoKAItM7Qd8TS5nGQN">
    <mxGraphModel dx="641" dy="1230" grid="0" gridSize="10" guides="1" tooltips="1" connect="1" arrows="1" fold="1" page="0" pageScale="1" pageWidth="827" pageHeight="1169" math="0" shadow="0">
      <root>
        <mxCell id="0" />
        <mxCell id="1" parent="0" />
        <mxCell id="NKTmCUpSZ6ov-ZOot37r-29" style="edgeStyle=orthogonalEdgeStyle;rounded=0;orthogonalLoop=1;jettySize=auto;html=1;exitX=0.455;exitY=1.02;exitDx=0;exitDy=0;endArrow=diamondThin;endFill=0;startSize=14;jumpSize=6;endSize=16;exitPerimeter=0;entryX=0.5;entryY=0;entryDx=0;entryDy=0;" parent="1" source="NKTmCUpSZ6ov-ZOot37r-8" target="NKTmCUpSZ6ov-ZOot37r-9" edge="1">
          <mxGeometry relative="1" as="geometry">
            <mxPoint x="2664" y="429" as="targetPoint" />
            <Array as="points">
              <mxPoint x="2647" y="424" />
              <mxPoint x="2646" y="440" />
            </Array>
          </mxGeometry>
        </mxCell>
        <mxCell id="KdbeKkQmCSpYOTBnLNWr-5" value="+ Results" style="swimlane;fontStyle=1;align=center;verticalAlign=top;childLayout=stackLayout;horizontal=1;startSize=26;horizontalStack=0;resizeParent=1;resizeParentMax=0;resizeLast=0;collapsible=1;marginBottom=0;whiteSpace=wrap;html=1;" parent="1" vertex="1">
          <mxGeometry x="1984" y="180" width="380" height="203" as="geometry">
            <mxRectangle x="1464" y="913" width="62" height="26" as="alternateBounds" />
          </mxGeometry>
        </mxCell>
        <mxCell id="KdbeKkQmCSpYOTBnLNWr-6" value="+ _id: Guid&lt;div&gt;+ userId: number&lt;/div&gt;&lt;div&gt;+ testId: number&lt;/div&gt;&lt;div&gt;&lt;span style=&quot;background-color: initial;&quot;&gt;+ points: number&lt;/span&gt;&lt;div&gt;&lt;div&gt;+ passDate: Date&lt;/div&gt;&lt;/div&gt;&lt;/div&gt;&lt;div&gt;&lt;div&gt;&lt;br&gt;&lt;/div&gt;&lt;/div&gt;" style="text;strokeColor=none;fillColor=none;align=left;verticalAlign=top;spacingLeft=4;spacingRight=4;overflow=hidden;rotatable=0;points=[[0,0.5],[1,0.5]];portConstraint=eastwest;whiteSpace=wrap;html=1;" parent="KdbeKkQmCSpYOTBnLNWr-5" vertex="1">
          <mxGeometry y="26" width="380" height="86" as="geometry" />
        </mxCell>
        <mxCell id="KdbeKkQmCSpYOTBnLNWr-7" value="" style="line;strokeWidth=1;fillColor=none;align=left;verticalAlign=middle;spacingTop=-1;spacingLeft=3;spacingRight=3;rotatable=0;labelPosition=right;points=[];portConstraint=eastwest;strokeColor=inherit;" parent="KdbeKkQmCSpYOTBnLNWr-5" vertex="1">
          <mxGeometry y="112" width="380" height="8" as="geometry" />
        </mxCell>
        <mxCell id="KdbeKkQmCSpYOTBnLNWr-8" value="+ getResults(): ResultDto[]&lt;div&gt;+ getResultsByID(&lt;span style=&quot;background-color: initial;&quot;&gt;Guid &lt;/span&gt;result&lt;span style=&quot;background-color: initial;&quot;&gt;Id):&amp;nbsp;&lt;/span&gt;&lt;span style=&quot;background-color: initial;&quot;&gt;ResultDto&lt;/span&gt;&lt;/div&gt;&lt;div&gt;+ getResultsByDate(Date date): ResultDto[]&lt;/div&gt;&lt;div&gt;+ getResultsByUser(Guid userId): ResultDto[]&lt;/div&gt;&lt;div&gt;- createResult(ResultDto resultDto):&amp;nbsp;&lt;span style=&quot;background-color: initial;&quot;&gt;ResultDto&lt;/span&gt;&lt;/div&gt;&lt;div&gt;&lt;div&gt;&lt;br&gt;&lt;/div&gt;&lt;/div&gt;" style="text;strokeColor=none;fillColor=none;align=left;verticalAlign=top;spacingLeft=4;spacingRight=4;overflow=hidden;rotatable=0;points=[[0,0.5],[1,0.5]];portConstraint=eastwest;whiteSpace=wrap;html=1;" parent="KdbeKkQmCSpYOTBnLNWr-5" vertex="1">
          <mxGeometry y="120" width="380" height="83" as="geometry" />
        </mxCell>
        <mxCell id="KdbeKkQmCSpYOTBnLNWr-17" value="+ Users" style="swimlane;fontStyle=1;align=center;verticalAlign=top;childLayout=stackLayout;horizontal=1;startSize=26;horizontalStack=0;resizeParent=1;resizeParentMax=0;resizeLast=0;collapsible=1;marginBottom=0;whiteSpace=wrap;html=1;" parent="1" vertex="1">
          <mxGeometry x="1511" y="-115" width="317" height="218" as="geometry">
            <mxRectangle x="1464" y="913" width="62" height="26" as="alternateBounds" />
          </mxGeometry>
        </mxCell>
        <mxCell id="KdbeKkQmCSpYOTBnLNWr-18" value="+ id: Guid&lt;div&gt;+ lastname: string&lt;/div&gt;&lt;div&gt;+ name: number&lt;/div&gt;&lt;div&gt;+ email: number&lt;/div&gt;&lt;div&gt;+ password: string&lt;/div&gt;&lt;div&gt;+ role: string&lt;br&gt;&lt;div&gt;&lt;br&gt;&lt;/div&gt;&lt;/div&gt;" style="text;strokeColor=none;fillColor=none;align=left;verticalAlign=top;spacingLeft=4;spacingRight=4;overflow=hidden;rotatable=0;points=[[0,0.5],[1,0.5]];portConstraint=eastwest;whiteSpace=wrap;html=1;" parent="KdbeKkQmCSpYOTBnLNWr-17" vertex="1">
          <mxGeometry y="26" width="317" height="98" as="geometry" />
        </mxCell>
        <mxCell id="KdbeKkQmCSpYOTBnLNWr-19" value="" style="line;strokeWidth=1;fillColor=none;align=left;verticalAlign=middle;spacingTop=-1;spacingLeft=3;spacingRight=3;rotatable=0;labelPosition=right;points=[];portConstraint=eastwest;strokeColor=inherit;" parent="KdbeKkQmCSpYOTBnLNWr-17" vertex="1">
          <mxGeometry y="124" width="317" height="8" as="geometry" />
        </mxCell>
        <mxCell id="KdbeKkQmCSpYOTBnLNWr-20" value="+ getUsers(): UserDto[]&lt;div&gt;+ registration(&lt;span style=&quot;background-color: initial;&quot;&gt;UserDto&amp;nbsp;&lt;/span&gt;&lt;span style=&quot;background-color: initial;&quot;&gt;userDto): UserDto, Token&lt;/span&gt;&lt;/div&gt;&lt;div&gt;&lt;div&gt;+ login(string email, string password): UserDto, Token&lt;/div&gt;&lt;div&gt;+ logout() : null&lt;/div&gt;&lt;div&gt;+updateUser(&lt;span style=&quot;background-color: initial;&quot;&gt;Guid&amp;nbsp;&lt;/span&gt;&lt;span style=&quot;background-color: initial;&quot;&gt;userId,&amp;nbsp;&lt;/span&gt;&lt;span style=&quot;background-color: initial;&quot;&gt;UserDto&lt;/span&gt;&lt;span style=&quot;background-color: initial;&quot;&gt;&amp;nbsp;userDto): UserDto&lt;/span&gt;&lt;/div&gt;&lt;div&gt;&lt;div&gt;&lt;br&gt;&lt;/div&gt;&lt;/div&gt;&lt;/div&gt;" style="text;strokeColor=none;fillColor=none;align=left;verticalAlign=top;spacingLeft=4;spacingRight=4;overflow=hidden;rotatable=0;points=[[0,0.5],[1,0.5]];portConstraint=eastwest;whiteSpace=wrap;html=1;" parent="KdbeKkQmCSpYOTBnLNWr-17" vertex="1">
          <mxGeometry y="132" width="317" height="86" as="geometry" />
        </mxCell>
        <mxCell id="NKTmCUpSZ6ov-ZOot37r-37" style="edgeStyle=orthogonalEdgeStyle;rounded=0;orthogonalLoop=1;jettySize=auto;html=1;entryX=0.5;entryY=0;entryDx=0;entryDy=0;endArrow=none;endFill=0;endSize=16;startArrow=diamondThin;startFill=0;startSize=16;" parent="1" source="NKTmCUpSZ6ov-ZOot37r-1" target="NKTmCUpSZ6ov-ZOot37r-5" edge="1">
          <mxGeometry relative="1" as="geometry" />
        </mxCell>
        <mxCell id="NKTmCUpSZ6ov-ZOot37r-1" value="+ Tests" style="swimlane;fontStyle=1;align=center;verticalAlign=top;childLayout=stackLayout;horizontal=1;startSize=26;horizontalStack=0;resizeParent=1;resizeParentMax=0;resizeLast=0;collapsible=1;marginBottom=0;whiteSpace=wrap;html=1;" parent="1" vertex="1">
          <mxGeometry x="2470" y="-115" width="388" height="188" as="geometry">
            <mxRectangle x="1464" y="913" width="62" height="26" as="alternateBounds" />
          </mxGeometry>
        </mxCell>
        <mxCell id="NKTmCUpSZ6ov-ZOot37r-2" value="+ _id: Guid&lt;div&gt;+ courseId: number&lt;br&gt;&lt;div&gt;+ name: string&lt;/div&gt;&lt;div&gt;&lt;div&gt;&lt;div&gt;&lt;br&gt;&lt;/div&gt;&lt;/div&gt;&lt;/div&gt;&lt;/div&gt;&lt;div&gt;&lt;div&gt;&lt;br&gt;&lt;/div&gt;&lt;/div&gt;" style="text;strokeColor=none;fillColor=none;align=left;verticalAlign=top;spacingLeft=4;spacingRight=4;overflow=hidden;rotatable=0;points=[[0,0.5],[1,0.5]];portConstraint=eastwest;whiteSpace=wrap;html=1;" parent="NKTmCUpSZ6ov-ZOot37r-1" vertex="1">
          <mxGeometry y="26" width="388" height="52" as="geometry" />
        </mxCell>
        <mxCell id="NKTmCUpSZ6ov-ZOot37r-3" value="" style="line;strokeWidth=1;fillColor=none;align=left;verticalAlign=middle;spacingTop=-1;spacingLeft=3;spacingRight=3;rotatable=0;labelPosition=right;points=[];portConstraint=eastwest;strokeColor=inherit;" parent="NKTmCUpSZ6ov-ZOot37r-1" vertex="1">
          <mxGeometry y="78" width="388" height="8" as="geometry" />
        </mxCell>
        <mxCell id="NKTmCUpSZ6ov-ZOot37r-4" value="+ getTests():&amp;nbsp;TestsDto[]&lt;div&gt;+ getTestByID(&lt;span style=&quot;background-color: initial;&quot;&gt;Guid&amp;nbsp;&lt;/span&gt;test&lt;span style=&quot;background-color: initial;&quot;&gt;Id&lt;/span&gt;&lt;span style=&quot;background-color: initial;&quot;&gt;):&amp;nbsp;&lt;/span&gt;&lt;span style=&quot;background-color: initial;&quot;&gt;TestsDto&lt;/span&gt;&lt;/div&gt;&lt;div&gt;+ getTestsByCourse(Guid testId): TestsDto[]&lt;br&gt;&lt;/div&gt;&lt;div&gt;+ createTest(TestsDto testDto):&amp;nbsp;&lt;span style=&quot;background-color: initial;&quot;&gt;TestsDto&lt;/span&gt;&lt;/div&gt;&lt;div&gt;+ updateTest(&lt;span style=&quot;background-color: initial;&quot;&gt;Guid&amp;nbsp;&lt;/span&gt;test&lt;span style=&quot;background-color: initial;&quot;&gt;Id&lt;/span&gt;&lt;span style=&quot;background-color: initial;&quot;&gt;,&amp;nbsp;&lt;/span&gt;TestsDto&lt;span style=&quot;background-color: initial;&quot;&gt;&amp;nbsp;tests&lt;/span&gt;&lt;span style=&quot;background-color: initial;&quot;&gt;Dto):&amp;nbsp;&lt;/span&gt;&lt;span style=&quot;background-color: initial;&quot;&gt;TestsDto&lt;/span&gt;&lt;/div&gt;&lt;div&gt;+ deleteTest(&lt;span style=&quot;background-color: initial;&quot;&gt;Guid &lt;/span&gt;test&lt;span style=&quot;background-color: initial;&quot;&gt;Id): null&lt;/span&gt;&lt;/div&gt;&lt;div&gt;&lt;div&gt;&lt;br&gt;&lt;/div&gt;&lt;/div&gt;" style="text;strokeColor=none;fillColor=none;align=left;verticalAlign=top;spacingLeft=4;spacingRight=4;overflow=hidden;rotatable=0;points=[[0,0.5],[1,0.5]];portConstraint=eastwest;whiteSpace=wrap;html=1;" parent="NKTmCUpSZ6ov-ZOot37r-1" vertex="1">
          <mxGeometry y="86" width="388" height="102" as="geometry" />
        </mxCell>
        <mxCell id="NKTmCUpSZ6ov-ZOot37r-5" value="+ Question" style="swimlane;fontStyle=1;align=center;verticalAlign=top;childLayout=stackLayout;horizontal=1;startSize=26;horizontalStack=0;resizeParent=1;resizeParentMax=0;resizeLast=0;collapsible=1;marginBottom=0;whiteSpace=wrap;html=1;" parent="1" vertex="1">
          <mxGeometry x="2470" y="180" width="388" height="182" as="geometry">
            <mxRectangle x="1464" y="913" width="62" height="26" as="alternateBounds" />
          </mxGeometry>
        </mxCell>
        <mxCell id="NKTmCUpSZ6ov-ZOot37r-6" value="+ _id: Guid&lt;div&gt;+ text: string&lt;/div&gt;&lt;div&gt;+ type: string&lt;/div&gt;" style="text;strokeColor=none;fillColor=none;align=left;verticalAlign=top;spacingLeft=4;spacingRight=4;overflow=hidden;rotatable=0;points=[[0,0.5],[1,0.5]];portConstraint=eastwest;whiteSpace=wrap;html=1;" parent="NKTmCUpSZ6ov-ZOot37r-5" vertex="1">
          <mxGeometry y="26" width="388" height="56" as="geometry" />
        </mxCell>
        <mxCell id="NKTmCUpSZ6ov-ZOot37r-7" value="" style="line;strokeWidth=1;fillColor=none;align=left;verticalAlign=middle;spacingTop=-1;spacingLeft=3;spacingRight=3;rotatable=0;labelPosition=right;points=[];portConstraint=eastwest;strokeColor=inherit;" parent="NKTmCUpSZ6ov-ZOot37r-5" vertex="1">
          <mxGeometry y="82" width="388" height="8" as="geometry" />
        </mxCell>
        <mxCell id="NKTmCUpSZ6ov-ZOot37r-8" value="&lt;div&gt;+ getQuestionByID(&lt;span style=&quot;background-color: initial;&quot;&gt;Guid questionId&lt;/span&gt;&lt;span style=&quot;background-color: initial;&quot;&gt;): Question&lt;/span&gt;&lt;span style=&quot;background-color: initial;&quot;&gt;Dto&lt;/span&gt;&lt;/div&gt;&lt;div&gt;+ getQuetionsByTest(Guid testId):&amp;nbsp;&lt;span style=&quot;background-color: initial;&quot;&gt;Question&lt;/span&gt;&lt;span style=&quot;background-color: initial;&quot;&gt;Dto&lt;/span&gt;[]&lt;br&gt;&lt;/div&gt;&lt;div&gt;+ createQuestion(&lt;span style=&quot;background-color: initial;&quot;&gt;Question&lt;/span&gt;&lt;span style=&quot;background-color: initial;&quot;&gt;Dto&lt;/span&gt;&amp;nbsp;questionDto):&amp;nbsp;&lt;span style=&quot;background-color: initial;&quot;&gt;Question&lt;/span&gt;&lt;span style=&quot;background-color: initial;&quot;&gt;Dto&lt;/span&gt;&lt;/div&gt;&lt;div&gt;+ updateQuestion(&lt;span style=&quot;background-color: initial;&quot;&gt;Guid&amp;nbsp;&lt;/span&gt;testId&lt;span style=&quot;background-color: initial;&quot;&gt;,&amp;nbsp;&lt;/span&gt;&lt;span style=&quot;background-color: initial;&quot;&gt;Question&lt;/span&gt;&lt;span style=&quot;background-color: initial;&quot;&gt;Dto&lt;/span&gt;&lt;span style=&quot;background-color: initial;&quot;&gt;&amp;nbsp;&lt;/span&gt;questionDto&lt;span style=&quot;background-color: initial;&quot;&gt;):&amp;nbsp;&lt;/span&gt;&lt;span style=&quot;background-color: initial;&quot;&gt;Question&lt;/span&gt;&lt;span style=&quot;background-color: initial;&quot;&gt;Dto&lt;/span&gt;&lt;/div&gt;&lt;div&gt;+ deleteQuestion(&lt;span style=&quot;background-color: initial;&quot;&gt;Guid&amp;nbsp;&lt;/span&gt;testId&lt;span style=&quot;background-color: initial;&quot;&gt;): null&lt;/span&gt;&lt;/div&gt;&lt;div&gt;&lt;div&gt;&lt;br&gt;&lt;/div&gt;&lt;/div&gt;" style="text;strokeColor=none;fillColor=none;align=left;verticalAlign=top;spacingLeft=4;spacingRight=4;overflow=hidden;rotatable=0;points=[[0,0.5],[1,0.5]];portConstraint=eastwest;whiteSpace=wrap;html=1;" parent="NKTmCUpSZ6ov-ZOot37r-5" vertex="1">
          <mxGeometry y="90" width="388" height="92" as="geometry" />
        </mxCell>
        <mxCell id="NKTmCUpSZ6ov-ZOot37r-9" value="+ Answer" style="swimlane;fontStyle=1;align=center;verticalAlign=top;childLayout=stackLayout;horizontal=1;startSize=26;horizontalStack=0;resizeParent=1;resizeParentMax=0;resizeLast=0;collapsible=1;marginBottom=0;whiteSpace=wrap;html=1;" parent="1" vertex="1">
          <mxGeometry x="2452" y="458" width="388" height="203" as="geometry">
            <mxRectangle x="1464" y="913" width="62" height="26" as="alternateBounds" />
          </mxGeometry>
        </mxCell>
        <mxCell id="NKTmCUpSZ6ov-ZOot37r-10" value="+ _id: Guid&lt;div&gt;+ questionId: number&lt;br&gt;&lt;div&gt;+ text: string&lt;/div&gt;&lt;div&gt;&lt;div&gt;+ correct: boolean&lt;/div&gt;&lt;div&gt;&lt;div&gt;&lt;br&gt;&lt;/div&gt;&lt;/div&gt;&lt;/div&gt;&lt;/div&gt;&lt;div&gt;&lt;div&gt;&lt;br&gt;&lt;/div&gt;&lt;/div&gt;" style="text;strokeColor=none;fillColor=none;align=left;verticalAlign=top;spacingLeft=4;spacingRight=4;overflow=hidden;rotatable=0;points=[[0,0.5],[1,0.5]];portConstraint=eastwest;whiteSpace=wrap;html=1;" parent="NKTmCUpSZ6ov-ZOot37r-9" vertex="1">
          <mxGeometry y="26" width="388" height="67" as="geometry" />
        </mxCell>
        <mxCell id="NKTmCUpSZ6ov-ZOot37r-11" value="" style="line;strokeWidth=1;fillColor=none;align=left;verticalAlign=middle;spacingTop=-1;spacingLeft=3;spacingRight=3;rotatable=0;labelPosition=right;points=[];portConstraint=eastwest;strokeColor=inherit;" parent="NKTmCUpSZ6ov-ZOot37r-9" vertex="1">
          <mxGeometry y="93" width="388" height="8" as="geometry" />
        </mxCell>
        <mxCell id="NKTmCUpSZ6ov-ZOot37r-12" value="&lt;div&gt;+ getAnswerByID(&lt;span style=&quot;background-color: initial;&quot;&gt;Guid answerId&lt;/span&gt;&lt;span style=&quot;background-color: initial;&quot;&gt;): &lt;/span&gt;Answer&lt;span style=&quot;background-color: initial;&quot;&gt;Dto&lt;/span&gt;&lt;/div&gt;&lt;div&gt;+ getAnswersByQuestionId(Guid questionId): Answer&lt;span style=&quot;background-color: initial;&quot;&gt;Dto&lt;/span&gt;[]&lt;br&gt;&lt;/div&gt;&lt;div&gt;+ createAnswer(&lt;span style=&quot;background-color: initial;&quot;&gt;Answer&lt;/span&gt;&lt;span style=&quot;background-color: initial;&quot;&gt;Dto&lt;/span&gt;&amp;nbsp;answer&lt;span style=&quot;background-color: initial;&quot;&gt;&lt;/span&gt;Dto):&amp;nbsp;&lt;span style=&quot;background-color: initial;&quot;&gt;Answer&lt;/span&gt;&lt;span style=&quot;background-color: initial;&quot;&gt;Dto&lt;/span&gt;&lt;/div&gt;&lt;div&gt;+ updateAnswer(&lt;span style=&quot;background-color: initial;&quot;&gt;Guid&amp;nbsp;&lt;/span&gt;answerId&lt;span style=&quot;background-color: initial;&quot;&gt;,&amp;nbsp;&lt;/span&gt;&lt;span style=&quot;background-color: initial;&quot;&gt;Answer&lt;/span&gt;&lt;span style=&quot;background-color: initial;&quot;&gt;Dto&lt;/span&gt;&lt;span style=&quot;background-color: initial;&quot;&gt;&amp;nbsp;&lt;/span&gt;answer&lt;span style=&quot;background-color: initial;&quot;&gt;&lt;/span&gt;Dto&lt;span style=&quot;background-color: initial;&quot;&gt;):&amp;nbsp;&lt;/span&gt;&lt;span style=&quot;background-color: initial;&quot;&gt;Answer&lt;/span&gt;&lt;span style=&quot;background-color: initial;&quot;&gt;Dto&lt;/span&gt;&lt;/div&gt;&lt;div&gt;+ deleteAnswer(&lt;span style=&quot;background-color: initial;&quot;&gt;Guid&amp;nbsp;&lt;/span&gt;answerId&lt;span style=&quot;background-color: initial;&quot;&gt;): null&lt;/span&gt;&lt;/div&gt;&lt;div&gt;&lt;div&gt;&lt;br&gt;&lt;/div&gt;&lt;/div&gt;" style="text;strokeColor=none;fillColor=none;align=left;verticalAlign=top;spacingLeft=4;spacingRight=4;overflow=hidden;rotatable=0;points=[[0,0.5],[1,0.5]];portConstraint=eastwest;whiteSpace=wrap;html=1;" parent="NKTmCUpSZ6ov-ZOot37r-9" vertex="1">
          <mxGeometry y="101" width="388" height="102" as="geometry" />
        </mxCell>
        <mxCell id="NKTmCUpSZ6ov-ZOot37r-45" style="edgeStyle=orthogonalEdgeStyle;rounded=0;orthogonalLoop=1;jettySize=auto;html=1;entryX=0.5;entryY=0;entryDx=0;entryDy=0;startArrow=diamondThin;startFill=0;endArrow=none;endFill=0;startSize=16;exitX=0.999;exitY=0.822;exitDx=0;exitDy=0;exitPerimeter=0;" parent="1" source="KdbeKkQmCSpYOTBnLNWr-18" target="KdbeKkQmCSpYOTBnLNWr-5" edge="1">
          <mxGeometry relative="1" as="geometry">
            <mxPoint x="1870" y="-4" as="sourcePoint" />
            <Array as="points">
              <mxPoint x="1930" y="-8" />
              <mxPoint x="1930" y="155" />
              <mxPoint x="2174" y="155" />
            </Array>
          </mxGeometry>
        </mxCell>
        <mxCell id="NKTmCUpSZ6ov-ZOot37r-22" value="+ Courses" style="swimlane;fontStyle=1;align=center;verticalAlign=top;childLayout=stackLayout;horizontal=1;startSize=26;horizontalStack=0;resizeParent=1;resizeParentMax=0;resizeLast=0;collapsible=1;marginBottom=0;whiteSpace=wrap;html=1;" parent="1" vertex="1">
          <mxGeometry x="1984" y="-115" width="380" height="230" as="geometry">
            <mxRectangle x="1464" y="913" width="62" height="26" as="alternateBounds" />
          </mxGeometry>
        </mxCell>
        <mxCell id="NKTmCUpSZ6ov-ZOot37r-23" value="+ _id: Guid&lt;div&gt;+ title: String&lt;/div&gt;&lt;div&gt;+ authorId: number&lt;br&gt;&lt;div&gt;&lt;div&gt;+ description: String&lt;/div&gt;&lt;/div&gt;&lt;/div&gt;&lt;div&gt;&lt;div&gt;&lt;div&gt;&lt;div&gt;+ content:String&lt;br&gt;&lt;/div&gt;&lt;/div&gt;&lt;/div&gt;&lt;/div&gt;&lt;div&gt;&lt;div&gt;&lt;br&gt;&lt;/div&gt;&lt;/div&gt;" style="text;strokeColor=none;fillColor=none;align=left;verticalAlign=top;spacingLeft=4;spacingRight=4;overflow=hidden;rotatable=0;points=[[0,0.5],[1,0.5]];portConstraint=eastwest;whiteSpace=wrap;html=1;" parent="NKTmCUpSZ6ov-ZOot37r-22" vertex="1">
          <mxGeometry y="26" width="380" height="84" as="geometry" />
        </mxCell>
        <mxCell id="NKTmCUpSZ6ov-ZOot37r-24" value="" style="line;strokeWidth=1;fillColor=none;align=left;verticalAlign=middle;spacingTop=-1;spacingLeft=3;spacingRight=3;rotatable=0;labelPosition=right;points=[];portConstraint=eastwest;strokeColor=inherit;" parent="NKTmCUpSZ6ov-ZOot37r-22" vertex="1">
          <mxGeometry y="110" width="380" height="8" as="geometry" />
        </mxCell>
        <mxCell id="NKTmCUpSZ6ov-ZOot37r-25" value="+ getCourses(): CourseDto[]&lt;div&gt;+ get&lt;span style=&quot;background-color: initial;&quot;&gt;Course&lt;/span&gt;&lt;span style=&quot;background-color: initial;&quot;&gt;ByID(&lt;/span&gt;&lt;span style=&quot;background-color: initial;&quot;&gt;Guid course&lt;/span&gt;&lt;span style=&quot;background-color: initial;&quot;&gt;Id):&amp;nbsp;&lt;/span&gt;&lt;span style=&quot;background-color: initial;&quot;&gt;CourseDto&lt;/span&gt;&lt;/div&gt;&lt;div&gt;+ getCoursesByAuthor(Guid userId): CourseDto[]&lt;/div&gt;&lt;div&gt;+ createCourse(CourseDto courseDto):&amp;nbsp;&lt;span style=&quot;background-color: initial;&quot;&gt;CourseDto&lt;/span&gt;&lt;/div&gt;&lt;div&gt;+ updateCourse(&lt;span style=&quot;background-color: initial;&quot;&gt;Guid course&lt;/span&gt;&lt;span style=&quot;background-color: initial;&quot;&gt;Id, CourseDto&lt;/span&gt;&lt;span style=&quot;background-color: initial;&quot;&gt;&amp;nbsp;course&lt;/span&gt;&lt;span style=&quot;background-color: initial;&quot;&gt;Dto):&amp;nbsp;&lt;/span&gt;&lt;span style=&quot;background-color: initial;&quot;&gt;CourseDto&lt;/span&gt;&lt;/div&gt;&lt;div&gt;+ delete&lt;span style=&quot;background-color: initial;&quot;&gt;Course&lt;/span&gt;&lt;span style=&quot;background-color: initial;&quot;&gt;(&lt;/span&gt;&lt;span style=&quot;background-color: initial;&quot;&gt;Guid course&lt;/span&gt;&lt;span style=&quot;background-color: initial;&quot;&gt;Id): null&lt;/span&gt;&lt;/div&gt;&lt;div&gt;&lt;div&gt;&lt;br&gt;&lt;/div&gt;&lt;/div&gt;" style="text;strokeColor=none;fillColor=none;align=left;verticalAlign=top;spacingLeft=4;spacingRight=4;overflow=hidden;rotatable=0;points=[[0,0.5],[1,0.5]];portConstraint=eastwest;whiteSpace=wrap;html=1;" parent="NKTmCUpSZ6ov-ZOot37r-22" vertex="1">
          <mxGeometry y="118" width="380" height="112" as="geometry" />
        </mxCell>
        <mxCell id="NKTmCUpSZ6ov-ZOot37r-44" style="edgeStyle=orthogonalEdgeStyle;rounded=0;orthogonalLoop=1;jettySize=auto;html=1;startArrow=diamondThin;startFill=0;endArrow=none;endFill=0;startSize=16;endSize=16;" parent="1" source="KdbeKkQmCSpYOTBnLNWr-18" target="NKTmCUpSZ6ov-ZOot37r-23" edge="1">
          <mxGeometry relative="1" as="geometry">
            <Array as="points">
              <mxPoint x="1930" y="-47" />
              <mxPoint x="1930" y="-47" />
            </Array>
          </mxGeometry>
        </mxCell>
        <mxCell id="NKTmCUpSZ6ov-ZOot37r-46" style="edgeStyle=orthogonalEdgeStyle;rounded=0;orthogonalLoop=1;jettySize=auto;html=1;entryX=0;entryY=0.478;entryDx=0;entryDy=0;entryPerimeter=0;endArrow=none;endFill=0;startArrow=diamondThin;startFill=0;startSize=16;endSize=16;" parent="1" source="NKTmCUpSZ6ov-ZOot37r-23" target="NKTmCUpSZ6ov-ZOot37r-2" edge="1">
          <mxGeometry relative="1" as="geometry">
            <Array as="points">
              <mxPoint x="2390" y="-44" />
              <mxPoint x="2390" y="-44" />
            </Array>
          </mxGeometry>
        </mxCell>
        <mxCell id="NKTmCUpSZ6ov-ZOot37r-49" style="edgeStyle=orthogonalEdgeStyle;rounded=0;orthogonalLoop=1;jettySize=auto;html=1;entryX=1;entryY=0.5;entryDx=0;entryDy=0;startArrow=diamondThin;startFill=0;endArrow=none;endFill=0;endSize=16;startSize=16;exitX=-0.003;exitY=1.026;exitDx=0;exitDy=0;exitPerimeter=0;" parent="1" source="NKTmCUpSZ6ov-ZOot37r-2" target="KdbeKkQmCSpYOTBnLNWr-6" edge="1">
          <mxGeometry relative="1" as="geometry">
            <Array as="points">
              <mxPoint x="2412" y="-36" />
              <mxPoint x="2412" y="283" />
              <mxPoint x="2364" y="283" />
            </Array>
          </mxGeometry>
        </mxCell>
        <mxCell id="NKTmCUpSZ6ov-ZOot37r-50" value="0..n" style="edgeLabel;html=1;align=center;verticalAlign=middle;resizable=0;points=[];" parent="1" connectable="0" vertex="1">
          <mxGeometry x="2383.004705882353" y="269" as="geometry" />
        </mxCell>
        <mxCell id="NKTmCUpSZ6ov-ZOot37r-52" value="0..n" style="edgeLabel;html=1;align=center;verticalAlign=middle;resizable=0;points=[];" parent="1" connectable="0" vertex="1">
          <mxGeometry x="2627" y="444" as="geometry">
            <mxPoint x="-1" y="-5" as="offset" />
          </mxGeometry>
        </mxCell>
        <mxCell id="NKTmCUpSZ6ov-ZOot37r-53" value="0..n" style="edgeLabel;html=1;align=center;verticalAlign=middle;resizable=0;points=[];" parent="1" connectable="0" vertex="1">
          <mxGeometry x="1965.0047058823532" y="-61" as="geometry" />
        </mxCell>
        <mxCell id="NKTmCUpSZ6ov-ZOot37r-55" value="0..n" style="edgeLabel;html=1;align=center;verticalAlign=middle;resizable=0;points=[];" parent="1" connectable="0" vertex="1">
          <mxGeometry x="2399.004705882353" y="281" as="geometry">
            <mxPoint x="281" y="-114" as="offset" />
          </mxGeometry>
        </mxCell>
        <mxCell id="NKTmCUpSZ6ov-ZOot37r-56" value="0..n" style="edgeLabel;html=1;align=center;verticalAlign=middle;resizable=0;points=[];" parent="1" connectable="0" vertex="1">
          <mxGeometry x="2462.004705882353" y="-58" as="geometry">
            <mxPoint x="-6" y="-2" as="offset" />
          </mxGeometry>
        </mxCell>
        <mxCell id="NKTmCUpSZ6ov-ZOot37r-59" value="1" style="edgeLabel;html=1;align=center;verticalAlign=middle;resizable=0;points=[];" parent="1" connectable="0" vertex="1">
          <mxGeometry x="1880" y="-65" as="geometry" />
        </mxCell>
        <mxCell id="NKTmCUpSZ6ov-ZOot37r-65" value="1" style="edgeLabel;html=1;align=center;verticalAlign=middle;resizable=0;points=[];" parent="1" connectable="0" vertex="1">
          <mxGeometry x="2452" y="274" as="geometry">
            <mxPoint x="-5" y="-297" as="offset" />
          </mxGeometry>
        </mxCell>
        <mxCell id="NKTmCUpSZ6ov-ZOot37r-66" value="1" style="edgeLabel;html=1;align=center;verticalAlign=middle;resizable=0;points=[];" parent="1" connectable="0" vertex="1">
          <mxGeometry x="2375" y="-60" as="geometry" />
        </mxCell>
        <mxCell id="NKTmCUpSZ6ov-ZOot37r-67" value="1" style="edgeLabel;html=1;align=center;verticalAlign=middle;resizable=0;points=[];" parent="1" connectable="0" vertex="1">
          <mxGeometry x="2678" y="126" as="geometry">
            <mxPoint x="2" y="-36" as="offset" />
          </mxGeometry>
        </mxCell>
        <mxCell id="NKTmCUpSZ6ov-ZOot37r-72" value="" style="shape=folder;fontStyle=1;spacingTop=10;tabWidth=40;tabHeight=14;tabPosition=left;html=1;whiteSpace=wrap;" parent="1" vertex="1">
          <mxGeometry x="1081" y="962" width="366" height="148" as="geometry" />
        </mxCell>
        <mxCell id="NKTmCUpSZ6ov-ZOot37r-73" value="&lt;div&gt;&lt;span style=&quot;font-weight: normal;&quot;&gt;User interface&lt;/span&gt;&lt;/div&gt;&lt;div&gt;&lt;span style=&quot;font-weight: normal;&quot;&gt;React.js&lt;/span&gt;&lt;br&gt;&lt;/div&gt;" style="shape=folder;fontStyle=1;spacingTop=10;tabWidth=40;tabHeight=14;tabPosition=left;html=1;whiteSpace=wrap;" parent="1" vertex="1">
          <mxGeometry x="1222" y="1028" width="120" height="60" as="geometry" />
        </mxCell>
        <mxCell id="NKTmCUpSZ6ov-ZOot37r-75" value="Presenation layer" style="text;align=center;fontStyle=1;verticalAlign=middle;spacingLeft=3;spacingRight=3;strokeColor=none;rotatable=0;points=[[0,0.5],[1,0.5]];portConstraint=eastwest;html=1;" parent="1" vertex="1">
          <mxGeometry x="1205.5" y="981" width="117" height="26" as="geometry" />
        </mxCell>
        <mxCell id="NKTmCUpSZ6ov-ZOot37r-99" style="edgeStyle=orthogonalEdgeStyle;rounded=0;orthogonalLoop=1;jettySize=auto;html=1;dashed=1;" parent="1" source="NKTmCUpSZ6ov-ZOot37r-78" edge="1">
          <mxGeometry relative="1" as="geometry">
            <mxPoint x="1519" y="1270" as="targetPoint" />
          </mxGeometry>
        </mxCell>
        <mxCell id="NKTmCUpSZ6ov-ZOot37r-78" value="" style="shape=folder;fontStyle=1;spacingTop=10;tabWidth=40;tabHeight=14;tabPosition=left;html=1;whiteSpace=wrap;" parent="1" vertex="1">
          <mxGeometry x="1081" y="1152" width="366" height="236" as="geometry" />
        </mxCell>
        <mxCell id="NKTmCUpSZ6ov-ZOot37r-106" style="rounded=0;orthogonalLoop=1;jettySize=auto;html=1;exitX=0.5;exitY=1;exitDx=0;exitDy=0;exitPerimeter=0;entryX=0.572;entryY=0.209;entryDx=0;entryDy=0;entryPerimeter=0;dashed=1;" parent="1" source="NKTmCUpSZ6ov-ZOot37r-79" target="NKTmCUpSZ6ov-ZOot37r-83" edge="1">
          <mxGeometry relative="1" as="geometry" />
        </mxCell>
        <mxCell id="NKTmCUpSZ6ov-ZOot37r-79" value="&lt;div&gt;&lt;span style=&quot;font-weight: normal;&quot;&gt;Application&lt;br&gt;&lt;/span&gt;&lt;/div&gt;&lt;div&gt;&lt;span style=&quot;font-weight: normal;&quot;&gt;Node.js&lt;/span&gt;&lt;br&gt;&lt;/div&gt;" style="shape=folder;fontStyle=1;spacingTop=10;tabWidth=40;tabHeight=14;tabPosition=left;html=1;whiteSpace=wrap;" parent="1" vertex="1">
          <mxGeometry x="1219" y="1211" width="90" height="58" as="geometry" />
        </mxCell>
        <mxCell id="NKTmCUpSZ6ov-ZOot37r-80" value="Buisness layer" style="text;align=center;fontStyle=1;verticalAlign=middle;spacingLeft=3;spacingRight=3;strokeColor=none;rotatable=0;points=[[0,0.5],[1,0.5]];portConstraint=eastwest;html=1;" parent="1" vertex="1">
          <mxGeometry x="1205.5" y="1174" width="117" height="26" as="geometry" />
        </mxCell>
        <mxCell id="NKTmCUpSZ6ov-ZOot37r-82" value="&lt;div&gt;&lt;span style=&quot;font-weight: 400;&quot;&gt;Handlers&lt;/span&gt;&lt;/div&gt;" style="shape=folder;fontStyle=1;spacingTop=10;tabWidth=40;tabHeight=14;tabPosition=left;html=1;whiteSpace=wrap;" parent="1" vertex="1">
          <mxGeometry x="1103" y="1307" width="90" height="58" as="geometry" />
        </mxCell>
        <mxCell id="NKTmCUpSZ6ov-ZOot37r-83" value="&lt;div&gt;&lt;span style=&quot;font-weight: normal;&quot;&gt;Buisness Entity&lt;br&gt;&lt;/span&gt;&lt;/div&gt;" style="shape=folder;fontStyle=1;spacingTop=10;tabWidth=40;tabHeight=14;tabPosition=left;html=1;whiteSpace=wrap;" parent="1" vertex="1">
          <mxGeometry x="1218" y="1307" width="90" height="58" as="geometry" />
        </mxCell>
        <mxCell id="NKTmCUpSZ6ov-ZOot37r-85" value="&lt;div&gt;&lt;span style=&quot;font-weight: normal;&quot;&gt;Services&lt;/span&gt;&lt;br&gt;&lt;/div&gt;" style="shape=folder;fontStyle=1;spacingTop=10;tabWidth=40;tabHeight=14;tabPosition=left;html=1;whiteSpace=wrap;" parent="1" vertex="1">
          <mxGeometry x="1333" y="1307" width="90" height="58" as="geometry" />
        </mxCell>
        <mxCell id="NKTmCUpSZ6ov-ZOot37r-94" value="" style="shape=folder;fontStyle=1;spacingTop=10;tabWidth=40;tabHeight=14;tabPosition=left;html=1;whiteSpace=wrap;" parent="1" vertex="1">
          <mxGeometry x="1521" y="1158" width="246" height="236" as="geometry" />
        </mxCell>
        <mxCell id="NKTmCUpSZ6ov-ZOot37r-95" value="&lt;div&gt;&lt;span style=&quot;font-weight: normal;&quot;&gt;Data access&lt;/span&gt;&lt;/div&gt;&lt;div&gt;&lt;span style=&quot;font-weight: normal;&quot;&gt;CDS models&lt;/span&gt;&lt;/div&gt;" style="shape=folder;fontStyle=1;spacingTop=10;tabWidth=40;tabHeight=14;tabPosition=left;html=1;whiteSpace=wrap;" parent="1" vertex="1">
          <mxGeometry x="1599" y="1247" width="90" height="58" as="geometry" />
        </mxCell>
        <mxCell id="NKTmCUpSZ6ov-ZOot37r-96" value="Data layer" style="text;align=center;fontStyle=1;verticalAlign=middle;spacingLeft=3;spacingRight=3;strokeColor=none;rotatable=0;points=[[0,0.5],[1,0.5]];portConstraint=eastwest;html=1;" parent="1" vertex="1">
          <mxGeometry x="1585.5" y="1182" width="117" height="26" as="geometry" />
        </mxCell>
        <mxCell id="NKTmCUpSZ6ov-ZOot37r-103" style="edgeStyle=orthogonalEdgeStyle;rounded=0;orthogonalLoop=1;jettySize=auto;html=1;entryX=0.501;entryY=0.058;entryDx=0;entryDy=0;entryPerimeter=0;dashed=1;" parent="1" source="NKTmCUpSZ6ov-ZOot37r-72" target="NKTmCUpSZ6ov-ZOot37r-78" edge="1">
          <mxGeometry relative="1" as="geometry" />
        </mxCell>
        <mxCell id="NKTmCUpSZ6ov-ZOot37r-104" style="rounded=0;orthogonalLoop=1;jettySize=auto;html=1;exitX=0.169;exitY=1.054;exitDx=0;exitDy=0;exitPerimeter=0;entryX=0;entryY=0;entryDx=65;entryDy=14;entryPerimeter=0;dashed=1;" parent="1" source="NKTmCUpSZ6ov-ZOot37r-79" target="NKTmCUpSZ6ov-ZOot37r-82" edge="1">
          <mxGeometry relative="1" as="geometry" />
        </mxCell>
        <mxCell id="NKTmCUpSZ6ov-ZOot37r-105" style="rounded=0;orthogonalLoop=1;jettySize=auto;html=1;exitX=0.675;exitY=1.034;exitDx=0;exitDy=0;exitPerimeter=0;entryX=0;entryY=0;entryDx=0;entryDy=14;entryPerimeter=0;dashed=1;" parent="1" source="NKTmCUpSZ6ov-ZOot37r-79" target="NKTmCUpSZ6ov-ZOot37r-85" edge="1">
          <mxGeometry relative="1" as="geometry" />
        </mxCell>
        <mxCell id="igB4frm3PIWrh2AMnmn5-3" value="1" style="edgeLabel;html=1;align=center;verticalAlign=middle;resizable=0;points=[];" parent="1" connectable="0" vertex="1">
          <mxGeometry x="1916" y="-65" as="geometry">
            <mxPoint x="-39" y="43" as="offset" />
          </mxGeometry>
        </mxCell>
        <mxCell id="igB4frm3PIWrh2AMnmn5-4" value="0..n" style="edgeLabel;html=1;align=center;verticalAlign=middle;resizable=0;points=[];" parent="1" connectable="0" vertex="1">
          <mxGeometry x="1981.0047058823532" y="-53" as="geometry">
            <mxPoint x="206" y="220" as="offset" />
          </mxGeometry>
        </mxCell>
        <mxCell id="igB4frm3PIWrh2AMnmn5-5" value="1" style="edgeLabel;html=1;align=center;verticalAlign=middle;resizable=0;points=[];" parent="1" connectable="0" vertex="1">
          <mxGeometry x="2630" y="421" as="geometry">
            <mxPoint x="2" y="-36" as="offset" />
          </mxGeometry>
        </mxCell>
      </root>
    </mxGraphModel>
  </diagram>
</mxfile>
